<mxfile host="65bd71144e">
    <diagram id="lQePoMb9YE3WA74B2Z-g" name="Page-1">
        <mxGraphModel dx="634" dy="522" grid="0" gridSize="10" guides="1" tooltips="1" connect="1" arrows="1" fold="1" page="1" pageScale="1" pageWidth="827" pageHeight="1169" math="0" shadow="0">
            <root>
                <mxCell id="0"/>
                <mxCell id="1" parent="0"/>
                <mxCell id="2" value="ModÃ©lisation&amp;nbsp;&lt;br style=&quot;font-size: 18px;&quot;&gt;=&lt;br style=&quot;font-size: 18px;&quot;&gt;Analyse + Conception" style="rounded=0;whiteSpace=wrap;html=1;fillColor=#b1ddf0;strokeColor=#10739e;fontSize=18;fontStyle=1;fontColor=#002952;" vertex="1" parent="1">
                    <mxGeometry x="195" y="116" width="216" height="113" as="geometry"/>
                </mxCell>
                <mxCell id="3" value="1" style="ellipse;whiteSpace=wrap;html=1;aspect=fixed;fontFamily=Helvetica;fontSize=18;fontStyle=1;fillColor=#f5f5f5;strokeColor=#666666;fontColor=#945DB0;" vertex="1" parent="1">
                    <mxGeometry x="182" y="206" width="42" height="42" as="geometry"/>
                </mxCell>
                <mxCell id="4" value="2" style="ellipse;whiteSpace=wrap;html=1;aspect=fixed;fontFamily=Helvetica;fontSize=18;fontStyle=1;fillColor=#f5f5f5;strokeColor=#666666;fontColor=#945DB0;" vertex="1" parent="1">
                    <mxGeometry x="385" y="206" width="42" height="42" as="geometry"/>
                </mxCell>
            </root>
        </mxGraphModel>
    </diagram>
</mxfile>